<?xml version="1.0" encoding="utf-8"?>
<!-- Generator: Adobe Illustrator 23.0.5, SVG Export Plug-In . SVG Version: 6.00 Build 0)  -->
<svg version="1.1" id="Layer_1" xmlns="http://www.w3.org/2000/svg" xmlns:xlink="http://www.w3.org/1999/xlink" x="0px" y="0px"
	 viewBox="0 0 349 26" style="enable-background:new 0 0 349 26;" xml:space="preserve">
<style type="text/css">
	.st0{fill:#E982AF;}
</style>
<g>
	<ellipse class="st0" cx="75.6" cy="8.3" rx="105.5" ry="0.7"/>
	<ellipse class="st0" cx="275.4" cy="8.3" rx="105.5" ry="0.7"/>
	<path class="st0" d="M200.8,12.9c32.8,0,65.5,0,98.3,0c0,0.2,0,0.3,0,0.5c-32.8,0-65.7,0-98.5,0C200.7,13.3,200.8,13.1,200.8,12.9z
		"/>
	<path class="st0" d="M200.8,17.9c16.1,0,32.2,0,48.3,0c0,0.2,0,0.3,0,0.5c-16.2,0-32.3,0-48.5,0C200.7,18.3,200.8,18.1,200.8,17.9z
		"/>
	<path class="st0" d="M150.2,13.6c-32.8,0-65.5,0-98.3,0c0-0.2,0-0.3,0-0.5c32.8,0,65.7,0,98.5,0C150.3,13.3,150.2,13.5,150.2,13.6z
		"/>
	<ellipse class="st0" cx="126.1" cy="18.3" rx="34.4" ry="0.3"/>
</g>
<image style="overflow:visible;" width="565" height="502" xlink:href="Untitled-1.png"  transform="matrix(4.445859e-02 0 0 4.445859e-02 163.1018 1.6643)">
</image>
</svg>
