<?xml version="1.0" standalone="no"?>
<!DOCTYPE svg PUBLIC "-//W3C//DTD SVG 20010904//EN"
 "http://www.w3.org/TR/2001/REC-SVG-20010904/DTD/svg10.dtd">
<svg version="1.0" xmlns="http://www.w3.org/2000/svg"
 width="565.000000pt" height="565.000000pt" viewBox="0 0 565.000000 565.000000"
 preserveAspectRatio="xMidYMid meet">
<metadata>
Created by potrace 1.14, written by Peter Selinger 2001-2017
</metadata>
<g transform="translate(0.000000,565.000000) scale(0.100000,-0.100000)"
fill="#000000" stroke="none">
<path d="M2228 5319 c-221 -24 -428 -83 -637 -181 -286 -133 -537 -369 -670
-628 -40 -78 -71 -152 -76 -180 0 -3 -6 -21 -12 -40 -29 -87 -42 -198 -39
-335 4 -148 5 -160 37 -269 90 -302 361 -610 684 -774 211 -108 517 -193 750
-209 89 -6 89 -6 75 14 -8 11 -41 56 -73 99 -67 92 -161 277 -177 349 -18 77
-19 84 -26 144 -60 516 266 1021 845 1307 148 73 366 154 452 168 40 7 78 31
67 42 -8 7 -196 49 -283 62 -64 9 -376 9 -479 -1 -340 -33 -670 -161 -966
-375 -98 -71 -251 -228 -317 -323 -91 -132 -172 -315 -188 -424 -8 -52 -16
-106 -20 -125 -2 -8 -4 -21 -4 -27 -1 -7 -5 -13 -10 -13 -18 0 -45 181 -45
310 0 189 34 333 119 505 204 411 665 728 1162 801 26 3 56 8 67 10 39 7 155
15 269 19 65 2 121 6 124 8 4 5 -44 23 -86 32 -11 3 -29 7 -38 9 -10 2 -40 10
-68 16 -58 14 -339 20 -437 9z m-945 -494 c-235 -257 -351 -520 -359 -815 -7
-293 96 -549 308 -764 76 -77 89 -98 67 -111 -13 -8 -187 169 -258 261 -148
196 -223 499 -188 758 17 123 93 322 171 446 101 160 276 331 322 313 9 -3
-11 -31 -63 -88z m1759 18 c10 -10 -11 -13 -102 -14 -63 0 -122 -2 -130 -3 -8
-2 -42 -7 -75 -11 -203 -24 -458 -102 -650 -198 -286 -142 -553 -390 -660
-611 -19 -39 -43 -82 -54 -96 -16 -20 -21 -22 -35 -11 -39 33 -15 103 88 255
165 243 409 428 741 561 159 64 350 114 493 131 31 3 58 7 60 9 2 1 72 2 157
1 108 -1 158 -5 167 -13z"/>
<path d="M3700 5305 c-36 -14 -74 -30 -85 -35 -45 -22 -204 -69 -260 -77 -33
-5 -82 -8 -108 -7 -26 1 -47 1 -47 -1 0 -5 192 -63 363 -110 171 -47 227 -54
307 -41 100 16 146 106 101 198 -45 93 -147 120 -271 73z m207 -47 c23 -22 47
-84 37 -99 -2 -5 -21 10 -42 33 -20 23 -54 54 -75 69 -30 22 -34 28 -20 31 28
6 74 -9 100 -34z"/>
<path d="M4312 4830 c-67 -18 -112 -51 -112 -82 0 -20 64 -71 125 -99 27 -13
63 -19 112 -19 62 0 75 3 93 22 23 25 27 89 7 127 -29 59 -121 79 -225 51z"/>
<path d="M494 4811 c-83 -51 -102 -147 -50 -251 67 -134 108 -133 168 5 29 68
20 203 -16 242 -20 22 -70 24 -102 4z"/>
<path d="M3345 4574 c-491 -88 -780 -358 -875 -818 -27 -133 -47 -416 -29
-416 5 0 55 24 111 54 125 65 248 104 378 120 51 7 275 8 305 2 11 -2 45 -7
75 -11 274 -34 611 -187 915 -414 101 -76 318 -285 391 -376 21 -27 45 -56 52
-64 43 -45 203 -305 268 -437 43 -84 79 -153 80 -151 1 1 5 29 9 62 4 33 9 74
11 90 5 38 5 239 -1 287 -44 378 -197 702 -516 1094 -55 68 -232 236 -320 304
-125 96 -304 201 -453 265 -104 45 -167 66 -366 124 -26 8 8 9 130 6 194 -6
206 -7 330 -34 414 -90 790 -320 1115 -681 256 -285 431 -678 461 -1035 4 -44
8 -81 9 -83 2 -2 11 32 20 75 40 175 13 455 -63 673 -107 304 -320 626 -552
832 -121 108 -129 115 -255 199 -209 141 -506 273 -702 314 -43 9 -87 19 -98
22 -52 13 -354 11 -430 -3z m380 -48 c252 -26 570 -147 820 -310 112 -74 347
-286 378 -341 20 -37 -6 -24 -60 28 -32 30 -85 77 -118 104 -57 47 -221 163
-229 163 -3 0 -42 22 -88 48 -178 102 -471 206 -673 237 -70 11 -268 14 -325
4 -30 -5 -72 -11 -94 -14 -104 -16 -288 -91 -434 -177 -46 -27 -87 -47 -90
-43 -9 8 89 99 158 145 196 133 456 187 755 156z m105 -463 c228 -118 345
-199 488 -337 186 -180 468 -568 430 -592 -7 -4 -13 -3 -15 3 -7 19 -164 246
-207 298 -233 283 -521 498 -841 624 -132 53 -150 63 -153 93 l-3 26 68 -15
c45 -10 124 -44 233 -100z"/>
<path d="M132 4201 c-36 -10 -93 -61 -108 -96 -7 -19 -14 -55 -15 -82 -2 -53
9 -80 95 -232 66 -116 95 -199 102 -289 3 -42 10 -81 15 -86 5 -6 9 -7 9 -3 0
4 11 58 24 120 13 61 27 137 31 167 4 30 9 64 12 75 3 11 7 86 10 167 6 145 5
147 -20 191 -33 56 -97 85 -155 68z m38 -47 c0 -4 -20 -30 -45 -59 -24 -29
-50 -64 -56 -79 -15 -32 -33 -29 -37 7 -5 37 23 88 61 114 30 21 77 31 77 17z"/>
<path d="M556 3682 c-20 -33 -29 -393 -14 -532 28 -242 134 -546 278 -795 260
-450 661 -732 1070 -751 165 -7 186 -14 124 -40 -126 -53 -377 -78 -544 -54
-261 37 -548 179 -731 363 -265 265 -474 705 -514 1087 -4 30 -8 62 -10 70 -3
8 -5 50 -7 93 -1 42 -6 77 -10 77 -4 0 -8 -8 -9 -17 0 -10 -2 -27 -5 -38 -23
-111 -22 -408 2 -580 23 -172 112 -437 202 -605 189 -355 427 -579 752 -711
235 -94 478 -111 721 -49 270 69 525 271 699 555 93 152 174 374 205 565 3 19
7 46 10 60 2 14 7 52 11 85 3 33 8 69 11 80 9 42 15 332 7 338 -5 3 -38 -22
-74 -55 -207 -191 -396 -291 -604 -318 -83 -12 -252 -9 -321 5 -16 3 -43 8
-60 11 -16 3 -73 19 -125 36 -414 133 -784 514 -1000 1028 -34 80 -54 108 -64
92z m108 -722 c37 -132 70 -218 131 -340 133 -270 309 -495 495 -634 30 -22
57 -44 60 -47 14 -17 175 -102 245 -129 143 -55 147 -57 135 -80 -6 -11 -15
-21 -20 -21 -6 -1 -16 -2 -22 -3 -27 -4 -125 27 -198 61 -182 87 -361 239
-500 428 -77 104 -73 98 -87 121 -142 229 -227 426 -283 661 -27 110 -29 128
-34 233 l-4 85 27 -120 c15 -66 40 -163 55 -215z m1802 -1225 c-139 -236 -450
-456 -707 -499 -19 -3 -45 -8 -59 -11 -35 -7 -220 -8 -250 -1 -14 3 -41 8 -60
11 -112 16 -246 62 -389 132 -91 45 -128 70 -181 122 -61 60 -122 146 -88 124
7 -4 58 -38 113 -75 55 -36 134 -82 175 -101 356 -165 652 -184 940 -60 155
67 190 92 341 244 180 181 220 208 165 114z"/>
<path d="M3090 2953 c0 -4 24 -43 54 -87 85 -129 151 -272 177 -384 6 -26 13
-56 16 -67 3 -11 7 -74 9 -140 6 -220 -47 -402 -179 -615 -176 -283 -424 -479
-806 -635 -116 -47 -349 -119 -425 -130 -56 -9 -59 -20 -8 -30 20 -5 42 -9 47
-11 99 -24 240 -50 320 -60 28 -3 61 -7 75 -10 32 -5 307 -5 340 0 14 3 48 7
75 11 82 10 283 55 369 82 251 78 527 238 697 404 168 163 332 454 345 612 6
72 22 119 38 114 27 -9 43 -312 22 -407 -3 -14 -10 -48 -15 -75 -20 -105 -97
-294 -163 -400 -140 -221 -325 -384 -573 -504 -205 -99 -407 -160 -625 -188
-69 -9 -336 -9 -455 1 -51 4 -85 3 -80 -2 17 -15 219 -65 345 -86 147 -24 413
-24 580 0 346 50 701 216 925 431 194 186 343 467 382 719 8 56 8 230 0 289
-26 175 -113 383 -225 535 -99 135 -258 277 -419 374 -123 74 -367 177 -474
200 -13 3 -51 12 -84 21 -33 8 -75 17 -92 20 -18 3 -52 9 -75 15 -50 11 -118
13 -118 3z m1163 -603 c116 -130 238 -384 261 -543 4 -27 9 -59 12 -70 6 -31
5 -196 -1 -232 -37 -209 -90 -339 -214 -525 -93 -139 -216 -252 -301 -275
l-25 -6 21 18 c18 15 84 93 157 183 91 111 194 301 238 439 38 120 40 130 44
291 2 102 -1 156 -15 221 -34 165 -130 366 -250 524 -26 34 -51 68 -55 76 -16
25 88 -57 128 -101z m-204 -652 c30 -82 -164 -350 -364 -506 -213 -165 -597
-321 -880 -357 -27 -4 -77 -10 -109 -14 -104 -14 -386 -4 -404 14 -17 17 29
23 166 23 87 0 182 3 212 7 30 3 69 8 85 10 214 27 533 145 732 272 206 130
350 278 468 478 59 101 78 115 94 73z"/>
<path d="M5387 2255 c-14 -44 -75 -292 -81 -330 -12 -75 -16 -223 -6 -252 14
-39 66 -93 109 -110 47 -20 129 -20 168 0 43 23 63 54 63 99 0 48 -12 75 -81
178 -88 134 -132 236 -153 364 -9 47 -15 64 -19 51z m207 -587 c-1 -13 -3 -26
-3 -30 -1 -3 -13 -20 -27 -37 -18 -21 -35 -31 -54 -31 -34 0 -60 9 -60 20 0
11 132 110 140 105 4 -2 6 -14 4 -27z"/>
<path d="M5000 1406 c-60 -33 -97 -178 -62 -246 20 -40 73 -70 123 -70 42 0
94 43 105 87 14 54 -40 176 -100 225 -25 21 -33 21 -66 4z"/>
<path d="M895 1112 c-91 -9 -133 -77 -88 -142 36 -53 75 -72 156 -76 92 -4
177 35 177 81 0 25 -58 83 -108 109 -38 20 -99 32 -137 28z"/>
<path d="M1463 688 c-73 -12 -108 -50 -117 -127 -12 -105 78 -186 193 -174 25
3 100 23 166 45 153 51 241 67 337 64 103 -3 91 10 -65 67 -227 84 -446 137
-514 125z m14 -207 c50 -53 51 -56 28 -59 -55 -7 -115 43 -119 100 -4 52 9 46
91 -41z"/>
</g>
</svg>
